<?xml version="1.0" encoding="iso-8859-1"?>
<!-- Uploaded to: SVG Repo, www.svgrepo.com, Generator: SVG Repo Mixer Tools -->
<!DOCTYPE svg PUBLIC "-//W3C//DTD SVG 1.1//EN" "http://www.w3.org/Graphics/SVG/1.1/DTD/svg11.dtd">
<svg fill="#43b97e" version="1.1" id="Capa_1" xmlns="http://www.w3.org/2000/svg" xmlns:xlink="http://www.w3.org/1999/xlink" 
	 width="800px" height="800px" viewBox="0 0 59.025 59.025"
	 xml:space="preserve">
<g>
	<g>
		<path d="M40.637,14.885h1.12c0.552,0,1-0.447,1-1c0-0.553-0.448-1-1-1h-1.12c-0.552,0-1,0.447-1,1
			C39.637,14.438,40.085,14.885,40.637,14.885z"/>
		<path d="M45.436,14.885h1.121c0.551,0,1-0.447,1-1c0-0.553-0.449-1-1-1h-1.121c-0.551,0-1,0.447-1,1
			C44.436,14.438,44.885,14.885,45.436,14.885z"/>
		<path d="M35.836,14.885h1.12c0.552,0,1-0.447,1-1c0-0.553-0.448-1-1-1h-1.12c-0.552,0-1,0.447-1,1
			C34.836,14.438,35.284,14.885,35.836,14.885z"/>
		<path d="M54.184,12.598c-0.188-0.188-0.441-0.293-0.707-0.293c-0.265,0-0.52,0.105-0.707,0.293l-2.457,2.456V10.48
			c0-0.553-0.447-1-1-1H1c-0.552,0-1,0.447-1,1v38.064c0,0.553,0.448,1,1,1h48.312c0.553,0,1-0.447,1-1V26.982l8.42-8.42
			c0.392-0.391,0.392-1.023,0-1.414L54.184,12.598z M40.963,29.416c0.023,0.516,0.438,0.928,0.952,0.952l3.593,0.17v14.104H4.805
			V18.226h40.703v1.632l-4.458,4.46c-0.198,0.199-0.305,0.473-0.292,0.754L40.963,29.416z M48.312,47.545H2V11.48h46.312v5.573
			l-0.806,0.805v-0.633c0-0.553-0.448-1-1-1H3.805c-0.552,0-1,0.447-1,1v28.415c0,0.553,0.448,1,1,1h42.703c0.553,0,1-0.447,1-1
			V29.787l0.807-0.806v18.563H48.312z M46.543,27.924l-0.632,0.632l-2.993-0.143l-0.143-2.994l0.82-0.82l9.881-9.88l3.135,3.137
			L46.543,27.924z"/>
		<path d="M39.02,22.734H8.797c-0.552,0-1,0.447-1,1v5.842c0,0.553,0.448,1,1,1H39.02c0.551,0,1-0.447,1-1v-5.842
			C40.02,23.181,39.572,22.734,39.02,22.734z M38.02,28.576H9.797v-3.842H38.02V28.576z"/>
		<path d="M18.351,32.679H8.797c-0.552,0-1,0.446-1,1v8.385c0,0.554,0.448,1,1,1h9.554c0.552,0,1-0.446,1-1v-8.385
			C19.351,33.125,18.903,32.679,18.351,32.679z M17.351,41.063H9.797v-6.385h7.554V41.063z"/>
		<path d="M39.02,32.679H22.64c-0.552,0-1,0.446-1,1c0,0.553,0.448,1,1,1H39.02c0.551,0,1-0.447,1-1
			C40.02,33.125,39.572,32.679,39.02,32.679z"/>
		<path d="M39.02,38.139H22.64c-0.552,0-1,0.447-1,1s0.448,1,1,1H39.02c0.551,0,1-0.447,1-1S39.572,38.139,39.02,38.139z"/>
	</g>
</g>
</svg>